<mxfile host="app.diagrams.net" agent="Mozilla/5.0 (Windows NT 10.0; Win64; x64) AppleWebKit/537.36 (KHTML, like Gecko) Chrome/134.0.0.0 Safari/537.36" version="26.1.1">
  <diagram name="第 1 页" id="k9ARDZo4Aj4IXarrBpMy">
    <mxGraphModel dx="1621" dy="458" grid="1" gridSize="10" guides="1" tooltips="1" connect="1" arrows="1" fold="1" page="1" pageScale="1" pageWidth="827" pageHeight="1169" math="0" shadow="0">
      <root>
        <mxCell id="0" />
        <mxCell id="1" parent="0" />
        <mxCell id="g1Dt68nagMTFg1dU7cTH-1" value="" style="ellipse;whiteSpace=wrap;html=1;aspect=fixed;shadow=1;fillColor=#000000;" parent="1" vertex="1">
          <mxGeometry x="190" y="240" width="20" height="20" as="geometry" />
        </mxCell>
        <mxCell id="g1Dt68nagMTFg1dU7cTH-2" value="" style="ellipse;whiteSpace=wrap;html=1;aspect=fixed;shadow=1;fillColor=#000000;" parent="1" vertex="1">
          <mxGeometry x="230" y="240" width="20" height="20" as="geometry" />
        </mxCell>
        <mxCell id="g1Dt68nagMTFg1dU7cTH-5" value="" style="ellipse;whiteSpace=wrap;html=1;aspect=fixed;shadow=1;fillColor=#000000;" parent="1" vertex="1">
          <mxGeometry x="270" y="290" width="20" height="20" as="geometry" />
        </mxCell>
        <mxCell id="g1Dt68nagMTFg1dU7cTH-9" value="" style="ellipse;whiteSpace=wrap;html=1;aspect=fixed;shadow=1;fillColor=#000000;" parent="1" vertex="1">
          <mxGeometry x="150" y="290" width="20" height="20" as="geometry" />
        </mxCell>
        <mxCell id="g1Dt68nagMTFg1dU7cTH-11" value="" style="ellipse;whiteSpace=wrap;html=1;aspect=fixed;shadow=1;fillColor=#000000;" parent="1" vertex="1">
          <mxGeometry x="310" y="290" width="20" height="20" as="geometry" />
        </mxCell>
        <mxCell id="g1Dt68nagMTFg1dU7cTH-12" value="" style="ellipse;whiteSpace=wrap;html=1;aspect=fixed;shadow=1;fillColor=#000000;" parent="1" vertex="1">
          <mxGeometry x="230" y="290" width="20" height="20" as="geometry" />
        </mxCell>
        <mxCell id="g1Dt68nagMTFg1dU7cTH-14" value="" style="ellipse;whiteSpace=wrap;html=1;aspect=fixed;shadow=1;fillColor=#000000;" parent="1" vertex="1">
          <mxGeometry x="190" y="290" width="20" height="20" as="geometry" />
        </mxCell>
        <mxCell id="g1Dt68nagMTFg1dU7cTH-16" value="" style="ellipse;whiteSpace=wrap;html=1;aspect=fixed;shadow=1;fillColor=#000000;" parent="1" vertex="1">
          <mxGeometry x="270" y="240" width="20" height="20" as="geometry" />
        </mxCell>
        <mxCell id="g1Dt68nagMTFg1dU7cTH-20" value="" style="ellipse;whiteSpace=wrap;html=1;aspect=fixed;shadow=1;fillColor=#000000;" parent="1" vertex="1">
          <mxGeometry x="190" y="340" width="20" height="20" as="geometry" />
        </mxCell>
        <mxCell id="g1Dt68nagMTFg1dU7cTH-21" value="" style="ellipse;whiteSpace=wrap;html=1;aspect=fixed;shadow=1;fillColor=#000000;" parent="1" vertex="1">
          <mxGeometry x="230" y="340" width="20" height="20" as="geometry" />
        </mxCell>
        <mxCell id="g1Dt68nagMTFg1dU7cTH-22" value="" style="ellipse;whiteSpace=wrap;html=1;aspect=fixed;shadow=1;fillColor=#000000;" parent="1" vertex="1">
          <mxGeometry x="270" y="340" width="20" height="20" as="geometry" />
        </mxCell>
        <mxCell id="g1Dt68nagMTFg1dU7cTH-30" value="" style="endArrow=classic;html=1;rounded=0;entryX=0.5;entryY=0;entryDx=0;entryDy=0;" parent="1" target="g1Dt68nagMTFg1dU7cTH-11" edge="1">
          <mxGeometry width="50" height="50" relative="1" as="geometry">
            <mxPoint x="280" y="260" as="sourcePoint" />
            <mxPoint x="440" y="360" as="targetPoint" />
          </mxGeometry>
        </mxCell>
        <mxCell id="g1Dt68nagMTFg1dU7cTH-31" value="" style="endArrow=classic;html=1;rounded=0;exitX=0.5;exitY=1;exitDx=0;exitDy=0;entryX=0.5;entryY=0;entryDx=0;entryDy=0;" parent="1" source="g1Dt68nagMTFg1dU7cTH-16" target="g1Dt68nagMTFg1dU7cTH-5" edge="1">
          <mxGeometry width="50" height="50" relative="1" as="geometry">
            <mxPoint x="390" y="410" as="sourcePoint" />
            <mxPoint x="440" y="360" as="targetPoint" />
          </mxGeometry>
        </mxCell>
        <mxCell id="g1Dt68nagMTFg1dU7cTH-32" value="" style="endArrow=classic;html=1;rounded=0;entryX=1;entryY=0;entryDx=0;entryDy=0;" parent="1" target="g1Dt68nagMTFg1dU7cTH-12" edge="1">
          <mxGeometry width="50" height="50" relative="1" as="geometry">
            <mxPoint x="280" y="260" as="sourcePoint" />
            <mxPoint x="440" y="360" as="targetPoint" />
          </mxGeometry>
        </mxCell>
        <mxCell id="g1Dt68nagMTFg1dU7cTH-33" value="" style="endArrow=classic;html=1;rounded=0;entryX=1;entryY=0;entryDx=0;entryDy=0;" parent="1" target="g1Dt68nagMTFg1dU7cTH-14" edge="1">
          <mxGeometry width="50" height="50" relative="1" as="geometry">
            <mxPoint x="280" y="260" as="sourcePoint" />
            <mxPoint x="440" y="260" as="targetPoint" />
          </mxGeometry>
        </mxCell>
        <mxCell id="g1Dt68nagMTFg1dU7cTH-34" value="" style="endArrow=classic;html=1;rounded=0;exitX=0.5;exitY=1;exitDx=0;exitDy=0;entryX=1;entryY=0;entryDx=0;entryDy=0;" parent="1" source="g1Dt68nagMTFg1dU7cTH-16" target="g1Dt68nagMTFg1dU7cTH-9" edge="1">
          <mxGeometry width="50" height="50" relative="1" as="geometry">
            <mxPoint x="390" y="310" as="sourcePoint" />
            <mxPoint x="440" y="260" as="targetPoint" />
          </mxGeometry>
        </mxCell>
        <mxCell id="g1Dt68nagMTFg1dU7cTH-35" value="" style="endArrow=classic;html=1;rounded=0;exitX=0.5;exitY=1;exitDx=0;exitDy=0;entryX=0;entryY=0;entryDx=0;entryDy=0;" parent="1" source="g1Dt68nagMTFg1dU7cTH-2" target="g1Dt68nagMTFg1dU7cTH-11" edge="1">
          <mxGeometry width="50" height="50" relative="1" as="geometry">
            <mxPoint x="390" y="310" as="sourcePoint" />
            <mxPoint x="440" y="260" as="targetPoint" />
          </mxGeometry>
        </mxCell>
        <mxCell id="g1Dt68nagMTFg1dU7cTH-36" value="" style="endArrow=classic;html=1;rounded=0;entryX=0.5;entryY=0;entryDx=0;entryDy=0;" parent="1" target="g1Dt68nagMTFg1dU7cTH-5" edge="1">
          <mxGeometry width="50" height="50" relative="1" as="geometry">
            <mxPoint x="240" y="260" as="sourcePoint" />
            <mxPoint x="440" y="260" as="targetPoint" />
          </mxGeometry>
        </mxCell>
        <mxCell id="g1Dt68nagMTFg1dU7cTH-37" value="" style="endArrow=classic;html=1;rounded=0;exitX=0.5;exitY=1;exitDx=0;exitDy=0;entryX=0.5;entryY=0;entryDx=0;entryDy=0;" parent="1" source="g1Dt68nagMTFg1dU7cTH-2" target="g1Dt68nagMTFg1dU7cTH-12" edge="1">
          <mxGeometry width="50" height="50" relative="1" as="geometry">
            <mxPoint x="390" y="310" as="sourcePoint" />
            <mxPoint x="440" y="260" as="targetPoint" />
          </mxGeometry>
        </mxCell>
        <mxCell id="g1Dt68nagMTFg1dU7cTH-38" value="" style="endArrow=classic;html=1;rounded=0;entryX=1;entryY=0;entryDx=0;entryDy=0;" parent="1" target="g1Dt68nagMTFg1dU7cTH-9" edge="1">
          <mxGeometry width="50" height="50" relative="1" as="geometry">
            <mxPoint x="240" y="260" as="sourcePoint" />
            <mxPoint x="440" y="260" as="targetPoint" />
          </mxGeometry>
        </mxCell>
        <mxCell id="g1Dt68nagMTFg1dU7cTH-39" value="" style="endArrow=classic;html=1;rounded=0;entryX=0.5;entryY=0;entryDx=0;entryDy=0;" parent="1" target="g1Dt68nagMTFg1dU7cTH-14" edge="1">
          <mxGeometry width="50" height="50" relative="1" as="geometry">
            <mxPoint x="240" y="260" as="sourcePoint" />
            <mxPoint x="440" y="260" as="targetPoint" />
          </mxGeometry>
        </mxCell>
        <mxCell id="g1Dt68nagMTFg1dU7cTH-40" value="" style="endArrow=classic;html=1;rounded=0;exitX=0.5;exitY=1;exitDx=0;exitDy=0;" parent="1" source="g1Dt68nagMTFg1dU7cTH-1" edge="1">
          <mxGeometry width="50" height="50" relative="1" as="geometry">
            <mxPoint x="390" y="310" as="sourcePoint" />
            <mxPoint x="310" y="290" as="targetPoint" />
          </mxGeometry>
        </mxCell>
        <mxCell id="g1Dt68nagMTFg1dU7cTH-41" value="" style="endArrow=classic;html=1;rounded=0;entryX=0;entryY=0;entryDx=0;entryDy=0;" parent="1" target="g1Dt68nagMTFg1dU7cTH-5" edge="1">
          <mxGeometry width="50" height="50" relative="1" as="geometry">
            <mxPoint x="200" y="260" as="sourcePoint" />
            <mxPoint x="440" y="260" as="targetPoint" />
          </mxGeometry>
        </mxCell>
        <mxCell id="g1Dt68nagMTFg1dU7cTH-42" value="" style="endArrow=classic;html=1;rounded=0;" parent="1" edge="1">
          <mxGeometry width="50" height="50" relative="1" as="geometry">
            <mxPoint x="200" y="260" as="sourcePoint" />
            <mxPoint x="240" y="290" as="targetPoint" />
          </mxGeometry>
        </mxCell>
        <mxCell id="g1Dt68nagMTFg1dU7cTH-43" value="" style="endArrow=classic;html=1;rounded=0;exitX=0.5;exitY=1;exitDx=0;exitDy=0;entryX=0.5;entryY=0;entryDx=0;entryDy=0;" parent="1" source="g1Dt68nagMTFg1dU7cTH-1" target="g1Dt68nagMTFg1dU7cTH-14" edge="1">
          <mxGeometry width="50" height="50" relative="1" as="geometry">
            <mxPoint x="390" y="310" as="sourcePoint" />
            <mxPoint x="440" y="260" as="targetPoint" />
          </mxGeometry>
        </mxCell>
        <mxCell id="g1Dt68nagMTFg1dU7cTH-44" value="" style="endArrow=classic;html=1;rounded=0;entryX=1;entryY=0;entryDx=0;entryDy=0;" parent="1" target="g1Dt68nagMTFg1dU7cTH-9" edge="1">
          <mxGeometry width="50" height="50" relative="1" as="geometry">
            <mxPoint x="200" y="260" as="sourcePoint" />
            <mxPoint x="440" y="260" as="targetPoint" />
          </mxGeometry>
        </mxCell>
        <mxCell id="g1Dt68nagMTFg1dU7cTH-45" value="" style="endArrow=classic;html=1;rounded=0;exitX=0.5;exitY=1;exitDx=0;exitDy=0;entryX=1;entryY=0;entryDx=0;entryDy=0;" parent="1" source="g1Dt68nagMTFg1dU7cTH-11" target="g1Dt68nagMTFg1dU7cTH-22" edge="1">
          <mxGeometry width="50" height="50" relative="1" as="geometry">
            <mxPoint x="390" y="410" as="sourcePoint" />
            <mxPoint x="440" y="360" as="targetPoint" />
          </mxGeometry>
        </mxCell>
        <mxCell id="g1Dt68nagMTFg1dU7cTH-46" value="" style="endArrow=classic;html=1;rounded=0;entryX=1;entryY=0;entryDx=0;entryDy=0;" parent="1" target="g1Dt68nagMTFg1dU7cTH-21" edge="1">
          <mxGeometry width="50" height="50" relative="1" as="geometry">
            <mxPoint x="320" y="310" as="sourcePoint" />
            <mxPoint x="540" y="410" as="targetPoint" />
          </mxGeometry>
        </mxCell>
        <mxCell id="g1Dt68nagMTFg1dU7cTH-47" value="" style="endArrow=classic;html=1;rounded=0;entryX=1;entryY=0;entryDx=0;entryDy=0;" parent="1" target="g1Dt68nagMTFg1dU7cTH-20" edge="1">
          <mxGeometry width="50" height="50" relative="1" as="geometry">
            <mxPoint x="320" y="310" as="sourcePoint" />
            <mxPoint x="440" y="360" as="targetPoint" />
          </mxGeometry>
        </mxCell>
        <mxCell id="g1Dt68nagMTFg1dU7cTH-48" value="" style="endArrow=classic;html=1;rounded=0;exitX=0.5;exitY=1;exitDx=0;exitDy=0;entryX=1;entryY=0;entryDx=0;entryDy=0;" parent="1" source="g1Dt68nagMTFg1dU7cTH-5" target="g1Dt68nagMTFg1dU7cTH-22" edge="1">
          <mxGeometry width="50" height="50" relative="1" as="geometry">
            <mxPoint x="390" y="410" as="sourcePoint" />
            <mxPoint x="440" y="360" as="targetPoint" />
          </mxGeometry>
        </mxCell>
        <mxCell id="g1Dt68nagMTFg1dU7cTH-49" value="" style="endArrow=classic;html=1;rounded=0;entryX=0.5;entryY=0;entryDx=0;entryDy=0;" parent="1" target="g1Dt68nagMTFg1dU7cTH-21" edge="1">
          <mxGeometry width="50" height="50" relative="1" as="geometry">
            <mxPoint x="280" y="310" as="sourcePoint" />
            <mxPoint x="440" y="360" as="targetPoint" />
          </mxGeometry>
        </mxCell>
        <mxCell id="g1Dt68nagMTFg1dU7cTH-50" value="" style="endArrow=classic;html=1;rounded=0;exitX=0.5;exitY=1;exitDx=0;exitDy=0;entryX=1;entryY=0;entryDx=0;entryDy=0;" parent="1" source="g1Dt68nagMTFg1dU7cTH-5" target="g1Dt68nagMTFg1dU7cTH-20" edge="1">
          <mxGeometry width="50" height="50" relative="1" as="geometry">
            <mxPoint x="390" y="410" as="sourcePoint" />
            <mxPoint x="440" y="360" as="targetPoint" />
          </mxGeometry>
        </mxCell>
        <mxCell id="g1Dt68nagMTFg1dU7cTH-51" value="" style="endArrow=classic;html=1;rounded=0;exitX=0.5;exitY=1;exitDx=0;exitDy=0;entryX=0.5;entryY=0;entryDx=0;entryDy=0;" parent="1" source="g1Dt68nagMTFg1dU7cTH-12" target="g1Dt68nagMTFg1dU7cTH-22" edge="1">
          <mxGeometry width="50" height="50" relative="1" as="geometry">
            <mxPoint x="390" y="410" as="sourcePoint" />
            <mxPoint x="440" y="360" as="targetPoint" />
          </mxGeometry>
        </mxCell>
        <mxCell id="g1Dt68nagMTFg1dU7cTH-52" value="" style="endArrow=classic;html=1;rounded=0;exitX=0.5;exitY=1;exitDx=0;exitDy=0;" parent="1" source="g1Dt68nagMTFg1dU7cTH-12" edge="1">
          <mxGeometry width="50" height="50" relative="1" as="geometry">
            <mxPoint x="390" y="410" as="sourcePoint" />
            <mxPoint x="240" y="340" as="targetPoint" />
          </mxGeometry>
        </mxCell>
        <mxCell id="g1Dt68nagMTFg1dU7cTH-53" value="" style="endArrow=classic;html=1;rounded=0;" parent="1" edge="1">
          <mxGeometry width="50" height="50" relative="1" as="geometry">
            <mxPoint x="240" y="310" as="sourcePoint" />
            <mxPoint x="210" y="340" as="targetPoint" />
          </mxGeometry>
        </mxCell>
        <mxCell id="g1Dt68nagMTFg1dU7cTH-54" value="" style="endArrow=classic;html=1;rounded=0;exitX=0.5;exitY=1;exitDx=0;exitDy=0;entryX=0;entryY=0;entryDx=0;entryDy=0;" parent="1" source="g1Dt68nagMTFg1dU7cTH-14" target="g1Dt68nagMTFg1dU7cTH-22" edge="1">
          <mxGeometry width="50" height="50" relative="1" as="geometry">
            <mxPoint x="390" y="410" as="sourcePoint" />
            <mxPoint x="440" y="360" as="targetPoint" />
          </mxGeometry>
        </mxCell>
        <mxCell id="g1Dt68nagMTFg1dU7cTH-56" value="" style="endArrow=classic;html=1;rounded=0;exitX=0.5;exitY=1;exitDx=0;exitDy=0;entryX=0.5;entryY=0;entryDx=0;entryDy=0;" parent="1" source="g1Dt68nagMTFg1dU7cTH-14" target="g1Dt68nagMTFg1dU7cTH-21" edge="1">
          <mxGeometry width="50" height="50" relative="1" as="geometry">
            <mxPoint x="390" y="410" as="sourcePoint" />
            <mxPoint x="440" y="360" as="targetPoint" />
          </mxGeometry>
        </mxCell>
        <mxCell id="g1Dt68nagMTFg1dU7cTH-57" value="" style="endArrow=classic;html=1;rounded=0;entryX=0.5;entryY=0;entryDx=0;entryDy=0;" parent="1" target="g1Dt68nagMTFg1dU7cTH-20" edge="1">
          <mxGeometry width="50" height="50" relative="1" as="geometry">
            <mxPoint x="200" y="310" as="sourcePoint" />
            <mxPoint x="440" y="360" as="targetPoint" />
          </mxGeometry>
        </mxCell>
        <mxCell id="g1Dt68nagMTFg1dU7cTH-58" value="" style="endArrow=classic;html=1;rounded=0;exitX=0.5;exitY=1;exitDx=0;exitDy=0;" parent="1" source="g1Dt68nagMTFg1dU7cTH-9" edge="1">
          <mxGeometry width="50" height="50" relative="1" as="geometry">
            <mxPoint x="390" y="410" as="sourcePoint" />
            <mxPoint x="280" y="340" as="targetPoint" />
          </mxGeometry>
        </mxCell>
        <mxCell id="g1Dt68nagMTFg1dU7cTH-59" value="" style="endArrow=classic;html=1;rounded=0;" parent="1" edge="1">
          <mxGeometry width="50" height="50" relative="1" as="geometry">
            <mxPoint x="160" y="310" as="sourcePoint" />
            <mxPoint x="230" y="340" as="targetPoint" />
          </mxGeometry>
        </mxCell>
        <mxCell id="g1Dt68nagMTFg1dU7cTH-60" value="" style="endArrow=classic;html=1;rounded=0;" parent="1" edge="1">
          <mxGeometry width="50" height="50" relative="1" as="geometry">
            <mxPoint x="160" y="310" as="sourcePoint" />
            <mxPoint x="200" y="340" as="targetPoint" />
          </mxGeometry>
        </mxCell>
        <mxCell id="g1Dt68nagMTFg1dU7cTH-61" value="" style="shape=curlyBracket;whiteSpace=wrap;html=1;rounded=1;flipH=1;labelPosition=right;verticalLabelPosition=middle;align=left;verticalAlign=middle;" parent="1" vertex="1">
          <mxGeometry x="340" y="240" width="20" height="120" as="geometry" />
        </mxCell>
        <mxCell id="g1Dt68nagMTFg1dU7cTH-100" value="BiLipTransformer" style="text;html=1;align=center;verticalAlign=middle;resizable=0;points=[];autosize=1;strokeColor=none;fillColor=none;rotation=0;" parent="1" vertex="1">
          <mxGeometry x="354" y="285" width="120" height="30" as="geometry" />
        </mxCell>
        <mxCell id="g1Dt68nagMTFg1dU7cTH-103" value="" style="ellipse;whiteSpace=wrap;html=1;aspect=fixed;fillColor=#000066;" parent="1" vertex="1">
          <mxGeometry x="195" y="170" width="20" height="20" as="geometry" />
        </mxCell>
        <mxCell id="g1Dt68nagMTFg1dU7cTH-104" value="" style="rounded=0;whiteSpace=wrap;html=1;fillColor=#000066;" parent="1" vertex="1">
          <mxGeometry x="90" y="170" width="20" height="20" as="geometry" />
        </mxCell>
        <mxCell id="g1Dt68nagMTFg1dU7cTH-106" value="" style="ellipse;whiteSpace=wrap;html=1;aspect=fixed;fillColor=#000066;" parent="1" vertex="1">
          <mxGeometry x="230" y="170" width="20" height="20" as="geometry" />
        </mxCell>
        <mxCell id="g1Dt68nagMTFg1dU7cTH-108" value="" style="rounded=0;whiteSpace=wrap;html=1;fillColor=#000066;" parent="1" vertex="1">
          <mxGeometry x="55" y="170" width="20" height="20" as="geometry" />
        </mxCell>
        <mxCell id="g1Dt68nagMTFg1dU7cTH-109" value="" style="rounded=0;whiteSpace=wrap;html=1;fillColor=#000066;" parent="1" vertex="1">
          <mxGeometry x="125" y="170" width="20" height="20" as="geometry" />
        </mxCell>
        <mxCell id="g1Dt68nagMTFg1dU7cTH-112" value="" style="endArrow=classic;html=1;rounded=0;fillColor=#FF3333;strokeColor=#FF3333;" parent="1" edge="1">
          <mxGeometry width="50" height="50" relative="1" as="geometry">
            <mxPoint x="240" y="200" as="sourcePoint" />
            <mxPoint x="240" y="230" as="targetPoint" />
          </mxGeometry>
        </mxCell>
        <mxCell id="g1Dt68nagMTFg1dU7cTH-121" value="" style="ellipse;whiteSpace=wrap;html=1;aspect=fixed;fillColor=#3333FF;" parent="1" vertex="1">
          <mxGeometry x="230" y="410" width="20" height="20" as="geometry" />
        </mxCell>
        <mxCell id="g1Dt68nagMTFg1dU7cTH-124" value="" style="ellipse;whiteSpace=wrap;html=1;aspect=fixed;fillColor=#3333FF;" parent="1" vertex="1">
          <mxGeometry x="195" y="410" width="20" height="20" as="geometry" />
        </mxCell>
        <mxCell id="g1Dt68nagMTFg1dU7cTH-125" value="" style="ellipse;whiteSpace=wrap;html=1;aspect=fixed;fillColor=#3333FF;" parent="1" vertex="1">
          <mxGeometry x="265" y="410" width="20" height="20" as="geometry" />
        </mxCell>
        <mxCell id="g1Dt68nagMTFg1dU7cTH-128" value="" style="endArrow=classic;html=1;rounded=0;fillColor=#FF3333;strokeColor=#FF3333;" parent="1" edge="1">
          <mxGeometry width="50" height="50" relative="1" as="geometry">
            <mxPoint x="240" y="370" as="sourcePoint" />
            <mxPoint x="240" y="400" as="targetPoint" />
          </mxGeometry>
        </mxCell>
        <mxCell id="g1Dt68nagMTFg1dU7cTH-129" value="" style="endArrow=classic;html=1;rounded=0;fillColor=#FF3333;strokeColor=#FF3333;" parent="1" edge="1">
          <mxGeometry width="50" height="50" relative="1" as="geometry">
            <mxPoint x="115" y="210" as="sourcePoint" />
            <mxPoint x="170" y="420" as="targetPoint" />
            <Array as="points">
              <mxPoint x="115" y="420" />
            </Array>
          </mxGeometry>
        </mxCell>
        <mxCell id="g1Dt68nagMTFg1dU7cTH-160" value="" style="ellipse;whiteSpace=wrap;html=1;aspect=fixed;fillColor=#000066;strokeColor=#000066;" parent="1" vertex="1">
          <mxGeometry x="-20" y="215" width="20" height="20" as="geometry" />
        </mxCell>
        <mxCell id="g1Dt68nagMTFg1dU7cTH-161" value="" style="ellipse;whiteSpace=wrap;html=1;aspect=fixed;fillColor=#3333FF;" parent="1" vertex="1">
          <mxGeometry x="-20" y="247" width="20" height="20" as="geometry" />
        </mxCell>
        <mxCell id="g1Dt68nagMTFg1dU7cTH-163" value="" style="rounded=0;whiteSpace=wrap;html=1;fillColor=#000066;" parent="1" vertex="1">
          <mxGeometry x="-20" y="277" width="20" height="20" as="geometry" />
        </mxCell>
        <mxCell id="g1Dt68nagMTFg1dU7cTH-164" value="original value" style="text;html=1;align=center;verticalAlign=middle;resizable=0;points=[];autosize=1;strokeColor=none;fillColor=none;" parent="1" vertex="1">
          <mxGeometry x="4" y="272" width="90" height="30" as="geometry" />
        </mxCell>
        <mxCell id="g1Dt68nagMTFg1dU7cTH-166" value="transformed key" style="text;html=1;align=center;verticalAlign=middle;resizable=0;points=[];autosize=1;strokeColor=none;fillColor=none;" parent="1" vertex="1">
          <mxGeometry y="242" width="110" height="30" as="geometry" />
        </mxCell>
        <mxCell id="g1Dt68nagMTFg1dU7cTH-167" value="original key" style="text;html=1;align=center;verticalAlign=middle;resizable=0;points=[];autosize=1;strokeColor=none;fillColor=none;" parent="1" vertex="1">
          <mxGeometry y="210" width="80" height="30" as="geometry" />
        </mxCell>
        <mxCell id="g1Dt68nagMTFg1dU7cTH-174" value="" style="endArrow=classic;html=1;rounded=0;" parent="1" edge="1">
          <mxGeometry width="50" height="50" relative="1" as="geometry">
            <mxPoint x="350" y="220" as="sourcePoint" />
            <mxPoint x="350" y="120" as="targetPoint" />
          </mxGeometry>
        </mxCell>
        <mxCell id="g1Dt68nagMTFg1dU7cTH-175" value="" style="endArrow=classic;html=1;rounded=0;" parent="1" edge="1">
          <mxGeometry width="50" height="50" relative="1" as="geometry">
            <mxPoint x="350" y="220" as="sourcePoint" />
            <mxPoint x="460" y="220" as="targetPoint" />
          </mxGeometry>
        </mxCell>
        <mxCell id="g1Dt68nagMTFg1dU7cTH-176" value="" style="shape=waypoint;sketch=0;fillStyle=solid;size=6;pointerEvents=1;points=[];fillColor=none;resizable=0;rotatable=0;perimeter=centerPerimeter;snapToPoint=1;" parent="1" vertex="1">
          <mxGeometry x="350" y="200" width="20" height="20" as="geometry" />
        </mxCell>
        <mxCell id="g1Dt68nagMTFg1dU7cTH-177" value="" style="shape=waypoint;sketch=0;fillStyle=solid;size=6;pointerEvents=1;points=[];fillColor=#000066;resizable=0;rotatable=0;perimeter=centerPerimeter;snapToPoint=1;" parent="1" vertex="1">
          <mxGeometry x="354" y="187.19" width="20" height="20" as="geometry" />
        </mxCell>
        <mxCell id="g1Dt68nagMTFg1dU7cTH-183" value="" style="shape=waypoint;sketch=0;fillStyle=solid;size=6;pointerEvents=1;points=[];fillColor=#000066;resizable=0;rotatable=0;perimeter=centerPerimeter;snapToPoint=1;" parent="1" vertex="1">
          <mxGeometry x="384" y="167.19" width="20" height="20" as="geometry" />
        </mxCell>
        <mxCell id="g1Dt68nagMTFg1dU7cTH-184" value="" style="shape=waypoint;sketch=0;fillStyle=solid;size=6;pointerEvents=1;points=[];fillColor=#000066;resizable=0;rotatable=0;perimeter=centerPerimeter;snapToPoint=1;" parent="1" vertex="1">
          <mxGeometry x="374" y="177.19" width="20" height="20" as="geometry" />
        </mxCell>
        <mxCell id="g1Dt68nagMTFg1dU7cTH-185" value="" style="shape=waypoint;sketch=0;fillStyle=solid;size=6;pointerEvents=1;points=[];fillColor=#000066;resizable=0;rotatable=0;perimeter=centerPerimeter;snapToPoint=1;" parent="1" vertex="1">
          <mxGeometry x="424" y="147.19" width="20" height="20" as="geometry" />
        </mxCell>
        <mxCell id="g1Dt68nagMTFg1dU7cTH-186" value="" style="shape=waypoint;sketch=0;fillStyle=solid;size=6;pointerEvents=1;points=[];fillColor=#000066;resizable=0;rotatable=0;perimeter=centerPerimeter;snapToPoint=1;" parent="1" vertex="1">
          <mxGeometry x="404" y="160" width="20" height="20" as="geometry" />
        </mxCell>
        <mxCell id="g1Dt68nagMTFg1dU7cTH-187" value="" style="endArrow=none;html=1;rounded=0;exitX=0.425;exitY=1.025;exitDx=0;exitDy=0;exitPerimeter=0;" parent="1" source="g1Dt68nagMTFg1dU7cTH-176" target="g1Dt68nagMTFg1dU7cTH-177" edge="1">
          <mxGeometry width="50" height="50" relative="1" as="geometry">
            <mxPoint x="290" y="330" as="sourcePoint" />
            <mxPoint x="340" y="280" as="targetPoint" />
          </mxGeometry>
        </mxCell>
        <mxCell id="g1Dt68nagMTFg1dU7cTH-188" value="" style="endArrow=none;html=1;rounded=0;entryX=0.35;entryY=1.14;entryDx=0;entryDy=0;entryPerimeter=0;" parent="1" source="g1Dt68nagMTFg1dU7cTH-177" target="g1Dt68nagMTFg1dU7cTH-184" edge="1">
          <mxGeometry width="50" height="50" relative="1" as="geometry">
            <mxPoint x="290" y="330" as="sourcePoint" />
            <mxPoint x="340" y="280" as="targetPoint" />
          </mxGeometry>
        </mxCell>
        <mxCell id="g1Dt68nagMTFg1dU7cTH-189" value="" style="endArrow=none;html=1;rounded=0;entryX=1.125;entryY=0.39;entryDx=0;entryDy=0;entryPerimeter=0;exitX=0.45;exitY=0.165;exitDx=0;exitDy=0;exitPerimeter=0;" parent="1" source="g1Dt68nagMTFg1dU7cTH-183" target="g1Dt68nagMTFg1dU7cTH-184" edge="1">
          <mxGeometry width="50" height="50" relative="1" as="geometry">
            <mxPoint x="290" y="330" as="sourcePoint" />
            <mxPoint x="340" y="280" as="targetPoint" />
          </mxGeometry>
        </mxCell>
        <mxCell id="g1Dt68nagMTFg1dU7cTH-190" value="" style="endArrow=none;html=1;rounded=0;entryX=0.7;entryY=0.25;entryDx=0;entryDy=0;entryPerimeter=0;exitX=0.85;exitY=0.315;exitDx=0;exitDy=0;exitPerimeter=0;" parent="1" source="g1Dt68nagMTFg1dU7cTH-183" target="g1Dt68nagMTFg1dU7cTH-186" edge="1">
          <mxGeometry width="50" height="50" relative="1" as="geometry">
            <mxPoint x="290" y="330" as="sourcePoint" />
            <mxPoint x="340" y="280" as="targetPoint" />
          </mxGeometry>
        </mxCell>
        <mxCell id="g1Dt68nagMTFg1dU7cTH-191" value="" style="endArrow=none;html=1;rounded=0;entryX=0.675;entryY=0.725;entryDx=0;entryDy=0;entryPerimeter=0;fillColor=#000066;" parent="1" source="g1Dt68nagMTFg1dU7cTH-185" target="g1Dt68nagMTFg1dU7cTH-186" edge="1">
          <mxGeometry width="50" height="50" relative="1" as="geometry">
            <mxPoint x="290" y="330" as="sourcePoint" />
            <mxPoint x="340" y="280" as="targetPoint" />
          </mxGeometry>
        </mxCell>
        <mxCell id="g1Dt68nagMTFg1dU7cTH-218" value="key" style="text;html=1;align=center;verticalAlign=middle;resizable=0;points=[];autosize=1;strokeColor=none;fillColor=none;" parent="1" vertex="1">
          <mxGeometry x="450" y="208" width="40" height="30" as="geometry" />
        </mxCell>
        <mxCell id="g1Dt68nagMTFg1dU7cTH-219" value="pos" style="text;html=1;align=center;verticalAlign=middle;resizable=0;points=[];autosize=1;strokeColor=none;fillColor=none;" parent="1" vertex="1">
          <mxGeometry x="340" y="98" width="40" height="30" as="geometry" />
        </mxCell>
        <mxCell id="g1Dt68nagMTFg1dU7cTH-220" value="" style="endArrow=none;html=1;rounded=0;entryX=0.8;entryY=0.35;entryDx=0;entryDy=0;entryPerimeter=0;exitX=0.825;exitY=0.75;exitDx=0;exitDy=0;exitPerimeter=0;" parent="1" source="g1Dt68nagMTFg1dU7cTH-176" target="g1Dt68nagMTFg1dU7cTH-221" edge="1">
          <mxGeometry width="50" height="50" relative="1" as="geometry">
            <mxPoint x="290" y="330" as="sourcePoint" />
            <mxPoint x="450" y="140" as="targetPoint" />
          </mxGeometry>
        </mxCell>
        <mxCell id="g1Dt68nagMTFg1dU7cTH-221" value="" style="shape=waypoint;sketch=0;fillStyle=solid;size=6;pointerEvents=1;points=[];fillColor=#000066;resizable=0;rotatable=0;perimeter=centerPerimeter;snapToPoint=1;" parent="1" vertex="1">
          <mxGeometry x="340" y="210" width="20" height="20" as="geometry" />
        </mxCell>
        <mxCell id="g1Dt68nagMTFg1dU7cTH-222" value="" style="endArrow=none;html=1;rounded=0;strokeColor=#FF0000;fillColor=#000066;" parent="1" source="g1Dt68nagMTFg1dU7cTH-221" edge="1">
          <mxGeometry width="50" height="50" relative="1" as="geometry">
            <mxPoint x="290" y="330" as="sourcePoint" />
            <mxPoint x="450" y="130" as="targetPoint" />
          </mxGeometry>
        </mxCell>
        <mxCell id="g1Dt68nagMTFg1dU7cTH-256" value="key" style="text;html=1;align=center;verticalAlign=middle;resizable=0;points=[];autosize=1;strokeColor=none;fillColor=none;" parent="1" vertex="1">
          <mxGeometry x="469" y="460" width="40" height="30" as="geometry" />
        </mxCell>
        <mxCell id="g1Dt68nagMTFg1dU7cTH-261" value="" style="swimlane;startSize=0;strokeColor=#000000;" parent="1" vertex="1">
          <mxGeometry x="-41" y="100" width="571" height="550" as="geometry" />
        </mxCell>
        <mxCell id="g1Dt68nagMTFg1dU7cTH-264" value="&lt;b&gt;BLNLI FRAMEWORK&lt;/b&gt;" style="text;html=1;align=center;verticalAlign=middle;resizable=0;points=[];autosize=1;strokeColor=none;fillColor=none;" parent="g1Dt68nagMTFg1dU7cTH-261" vertex="1">
          <mxGeometry x="10" y="8" width="140" height="30" as="geometry" />
        </mxCell>
        <mxCell id="g1Dt68nagMTFg1dU7cTH-107" value="" style="ellipse;whiteSpace=wrap;html=1;aspect=fixed;fillColor=#000066;strokeColor=#000066;" parent="g1Dt68nagMTFg1dU7cTH-261" vertex="1">
          <mxGeometry x="305" y="70" width="20" height="20" as="geometry" />
        </mxCell>
        <mxCell id="g1Dt68nagMTFg1dU7cTH-171" value="" style="shape=singleArrow;direction=south;whiteSpace=wrap;html=1;rotation=-90;dashed=1;" parent="g1Dt68nagMTFg1dU7cTH-261" vertex="1">
          <mxGeometry x="350.77" y="56.45" width="20" height="47.11" as="geometry" />
        </mxCell>
        <mxCell id="g1Dt68nagMTFg1dU7cTH-158" value="" style="swimlane;startSize=0;dashed=1;" parent="g1Dt68nagMTFg1dU7cTH-261" vertex="1">
          <mxGeometry x="221" y="305" width="120" height="30" as="geometry">
            <mxRectangle x="180" y="400" width="50" height="40" as="alternateBounds" />
          </mxGeometry>
        </mxCell>
        <mxCell id="g1Dt68nagMTFg1dU7cTH-64" value="PreciseSeekIndex" style="text;html=1;align=center;verticalAlign=middle;resizable=0;points=[];autosize=1;strokeColor=none;fillColor=none;rotation=0;" parent="g1Dt68nagMTFg1dU7cTH-261" vertex="1">
          <mxGeometry x="376" y="465" width="120" height="30" as="geometry" />
        </mxCell>
        <mxCell id="g1Dt68nagMTFg1dU7cTH-68" value="" style="endArrow=classic;html=1;rounded=0;exitX=0.5;exitY=1;exitDx=0;exitDy=0;" parent="g1Dt68nagMTFg1dU7cTH-261" source="g1Dt68nagMTFg1dU7cTH-91" edge="1">
          <mxGeometry width="50" height="50" relative="1" as="geometry">
            <mxPoint x="271" y="470" as="sourcePoint" />
            <mxPoint x="231" y="470" as="targetPoint" />
          </mxGeometry>
        </mxCell>
        <mxCell id="g1Dt68nagMTFg1dU7cTH-79" value="" style="endArrow=classic;html=1;rounded=0;exitX=0.5;exitY=1;exitDx=0;exitDy=0;" parent="g1Dt68nagMTFg1dU7cTH-261" source="g1Dt68nagMTFg1dU7cTH-91" edge="1">
          <mxGeometry width="50" height="50" relative="1" as="geometry">
            <mxPoint x="261" y="470" as="sourcePoint" />
            <mxPoint x="271" y="470" as="targetPoint" />
          </mxGeometry>
        </mxCell>
        <mxCell id="g1Dt68nagMTFg1dU7cTH-80" value="" style="endArrow=classic;html=1;rounded=0;exitX=0.5;exitY=1;exitDx=0;exitDy=0;entryX=0.5;entryY=0;entryDx=0;entryDy=0;" parent="g1Dt68nagMTFg1dU7cTH-261" source="g1Dt68nagMTFg1dU7cTH-91" target="g1Dt68nagMTFg1dU7cTH-92" edge="1">
          <mxGeometry width="50" height="50" relative="1" as="geometry">
            <mxPoint x="271" y="470" as="sourcePoint" />
            <mxPoint x="311" y="460" as="targetPoint" />
          </mxGeometry>
        </mxCell>
        <mxCell id="g1Dt68nagMTFg1dU7cTH-82" value="" style="endArrow=classic;html=1;rounded=0;exitX=0.5;exitY=1;exitDx=0;exitDy=0;" parent="g1Dt68nagMTFg1dU7cTH-261" source="g1Dt68nagMTFg1dU7cTH-96" edge="1">
          <mxGeometry width="50" height="50" relative="1" as="geometry">
            <mxPoint x="161" y="530" as="sourcePoint" />
            <mxPoint x="201" y="520" as="targetPoint" />
          </mxGeometry>
        </mxCell>
        <mxCell id="g1Dt68nagMTFg1dU7cTH-83" value="" style="endArrow=classic;html=1;rounded=0;exitX=0.5;exitY=1;exitDx=0;exitDy=0;entryX=0.5;entryY=0;entryDx=0;entryDy=0;" parent="g1Dt68nagMTFg1dU7cTH-261" source="g1Dt68nagMTFg1dU7cTH-96" target="g1Dt68nagMTFg1dU7cTH-98" edge="1">
          <mxGeometry width="50" height="50" relative="1" as="geometry">
            <mxPoint x="161" y="530" as="sourcePoint" />
            <mxPoint x="231" y="520" as="targetPoint" />
          </mxGeometry>
        </mxCell>
        <mxCell id="g1Dt68nagMTFg1dU7cTH-84" value="" style="endArrow=classic;html=1;rounded=0;exitX=0.5;exitY=1;exitDx=0;exitDy=0;" parent="g1Dt68nagMTFg1dU7cTH-261" source="g1Dt68nagMTFg1dU7cTH-95" edge="1">
          <mxGeometry width="50" height="50" relative="1" as="geometry">
            <mxPoint x="271" y="530" as="sourcePoint" />
            <mxPoint x="301" y="520" as="targetPoint" />
          </mxGeometry>
        </mxCell>
        <mxCell id="g1Dt68nagMTFg1dU7cTH-91" value="" style="rounded=1;whiteSpace=wrap;html=1;strokeWidth=2;fillWeight=4;hachureGap=8;hachureAngle=45;fillColor=#1ba1e2;sketch=1;" parent="g1Dt68nagMTFg1dU7cTH-261" vertex="1">
          <mxGeometry x="261" y="420" width="30" height="20" as="geometry" />
        </mxCell>
        <mxCell id="g1Dt68nagMTFg1dU7cTH-92" value="" style="rounded=1;whiteSpace=wrap;html=1;strokeWidth=2;fillWeight=4;hachureGap=8;hachureAngle=45;fillColor=#FF3333;sketch=1;" parent="g1Dt68nagMTFg1dU7cTH-261" vertex="1">
          <mxGeometry x="311" y="470" width="30" height="20" as="geometry" />
        </mxCell>
        <mxCell id="g1Dt68nagMTFg1dU7cTH-93" value="" style="rounded=1;whiteSpace=wrap;html=1;strokeWidth=2;fillWeight=4;hachureGap=8;hachureAngle=45;fillColor=#1ba1e2;sketch=1;" parent="g1Dt68nagMTFg1dU7cTH-261" vertex="1">
          <mxGeometry x="191" y="520" width="30" height="20" as="geometry" />
        </mxCell>
        <mxCell id="g1Dt68nagMTFg1dU7cTH-94" value="" style="rounded=1;whiteSpace=wrap;html=1;strokeWidth=2;fillWeight=4;hachureGap=8;hachureAngle=45;fillColor=#1ba1e2;sketch=1;" parent="g1Dt68nagMTFg1dU7cTH-261" vertex="1">
          <mxGeometry x="281" y="520" width="30" height="20" as="geometry" />
        </mxCell>
        <mxCell id="g1Dt68nagMTFg1dU7cTH-95" value="" style="rounded=1;whiteSpace=wrap;html=1;strokeWidth=2;fillWeight=4;hachureGap=8;hachureAngle=45;fillColor=#1ba1e2;sketch=1;" parent="g1Dt68nagMTFg1dU7cTH-261" vertex="1">
          <mxGeometry x="261" y="470" width="30" height="20" as="geometry" />
        </mxCell>
        <mxCell id="g1Dt68nagMTFg1dU7cTH-96" value="" style="rounded=1;whiteSpace=wrap;html=1;strokeWidth=2;fillWeight=4;hachureGap=8;hachureAngle=45;fillColor=#1ba1e2;sketch=1;" parent="g1Dt68nagMTFg1dU7cTH-261" vertex="1">
          <mxGeometry x="211" y="470" width="30" height="20" as="geometry" />
        </mxCell>
        <mxCell id="g1Dt68nagMTFg1dU7cTH-98" value="" style="rounded=1;whiteSpace=wrap;html=1;strokeWidth=2;fillWeight=4;hachureGap=8;hachureAngle=45;fillColor=#FF3333;sketch=1;" parent="g1Dt68nagMTFg1dU7cTH-261" vertex="1">
          <mxGeometry x="231" y="520" width="30" height="20" as="geometry" />
        </mxCell>
        <mxCell id="g1Dt68nagMTFg1dU7cTH-99" value="" style="shape=curlyBracket;whiteSpace=wrap;html=1;rounded=1;flipH=1;labelPosition=right;verticalLabelPosition=middle;align=left;verticalAlign=middle;" parent="g1Dt68nagMTFg1dU7cTH-261" vertex="1">
          <mxGeometry x="356" y="420" width="20" height="120" as="geometry" />
        </mxCell>
        <mxCell id="g1Dt68nagMTFg1dU7cTH-85" value="" style="rounded=1;whiteSpace=wrap;html=1;strokeWidth=2;fillWeight=4;hachureGap=8;hachureAngle=45;fillColor=#1ba1e2;sketch=1;" parent="g1Dt68nagMTFg1dU7cTH-261" vertex="1">
          <mxGeometry x="30" y="430" width="30" height="20" as="geometry" />
        </mxCell>
        <mxCell id="g1Dt68nagMTFg1dU7cTH-88" value="" style="rounded=1;whiteSpace=wrap;html=1;strokeWidth=2;fillWeight=4;hachureGap=8;hachureAngle=45;fillColor=#FF3333;sketch=1;" parent="g1Dt68nagMTFg1dU7cTH-261" vertex="1">
          <mxGeometry x="30" y="460" width="30" height="20" as="geometry" />
        </mxCell>
        <mxCell id="g1Dt68nagMTFg1dU7cTH-89" value="Model Node" style="text;html=1;align=center;verticalAlign=middle;resizable=0;points=[];autosize=1;strokeColor=none;fillColor=none;" parent="g1Dt68nagMTFg1dU7cTH-261" vertex="1">
          <mxGeometry x="60" y="425" width="90" height="30" as="geometry" />
        </mxCell>
        <mxCell id="g1Dt68nagMTFg1dU7cTH-90" value="Bucket Node" style="text;html=1;align=center;verticalAlign=middle;resizable=0;points=[];autosize=1;strokeColor=none;fillColor=none;" parent="g1Dt68nagMTFg1dU7cTH-261" vertex="1">
          <mxGeometry x="60" y="455" width="90" height="30" as="geometry" />
        </mxCell>
        <mxCell id="g1Dt68nagMTFg1dU7cTH-130" value="" style="rounded=0;whiteSpace=wrap;html=1;fillColor=#000066;" parent="g1Dt68nagMTFg1dU7cTH-261" vertex="1">
          <mxGeometry x="236" y="348.44" width="20" height="20" as="geometry" />
        </mxCell>
        <mxCell id="g1Dt68nagMTFg1dU7cTH-131" value="" style="rounded=0;whiteSpace=wrap;html=1;fillColor=#000066;" parent="g1Dt68nagMTFg1dU7cTH-261" vertex="1">
          <mxGeometry x="306" y="348.44" width="20" height="20" as="geometry" />
        </mxCell>
        <mxCell id="g1Dt68nagMTFg1dU7cTH-132" value="" style="rounded=0;whiteSpace=wrap;html=1;fillColor=#000066;" parent="g1Dt68nagMTFg1dU7cTH-261" vertex="1">
          <mxGeometry x="271" y="348.44" width="20" height="20" as="geometry" />
        </mxCell>
        <mxCell id="DO2-AvCjNsM7Y0rYpIjJ-1" value="" style="swimlane;startSize=0;dashed=1;" parent="g1Dt68nagMTFg1dU7cTH-261" vertex="1">
          <mxGeometry x="221" y="343.44" width="120" height="30" as="geometry">
            <mxRectangle x="180" y="400" width="50" height="40" as="alternateBounds" />
          </mxGeometry>
        </mxCell>
        <mxCell id="DO2-AvCjNsM7Y0rYpIjJ-2" value="" style="swimlane;startSize=0;dashed=1;" parent="g1Dt68nagMTFg1dU7cTH-261" vertex="1">
          <mxGeometry x="222" y="65" width="116" height="30" as="geometry">
            <mxRectangle x="180" y="400" width="50" height="40" as="alternateBounds" />
          </mxGeometry>
        </mxCell>
        <mxCell id="DO2-AvCjNsM7Y0rYpIjJ-3" value="" style="swimlane;startSize=0;dashed=1;" parent="g1Dt68nagMTFg1dU7cTH-261" vertex="1">
          <mxGeometry x="80" y="65" width="120" height="30" as="geometry">
            <mxRectangle x="180" y="400" width="50" height="40" as="alternateBounds" />
          </mxGeometry>
        </mxCell>
        <mxCell id="DO2-AvCjNsM7Y0rYpIjJ-4" value="" style="shape=singleArrow;direction=south;whiteSpace=wrap;html=1;rotation=-90;dashed=1;" parent="g1Dt68nagMTFg1dU7cTH-261" vertex="1">
          <mxGeometry x="354.28" y="296.72" width="20" height="45" as="geometry" />
        </mxCell>
        <mxCell id="g1Dt68nagMTFg1dU7cTH-243" value="" style="endArrow=classic;html=1;rounded=0;" parent="g1Dt68nagMTFg1dU7cTH-261" edge="1">
          <mxGeometry width="50" height="50" relative="1" as="geometry">
            <mxPoint x="391" y="365" as="sourcePoint" />
            <mxPoint x="391" y="265" as="targetPoint" />
          </mxGeometry>
        </mxCell>
        <mxCell id="g1Dt68nagMTFg1dU7cTH-244" value="" style="endArrow=classic;html=1;rounded=0;" parent="g1Dt68nagMTFg1dU7cTH-261" edge="1">
          <mxGeometry width="50" height="50" relative="1" as="geometry">
            <mxPoint x="391" y="365" as="sourcePoint" />
            <mxPoint x="501" y="365" as="targetPoint" />
          </mxGeometry>
        </mxCell>
        <mxCell id="g1Dt68nagMTFg1dU7cTH-245" value="" style="shape=waypoint;sketch=0;fillStyle=solid;size=6;pointerEvents=1;points=[];fillColor=none;resizable=0;rotatable=0;perimeter=centerPerimeter;snapToPoint=1;" parent="g1Dt68nagMTFg1dU7cTH-261" vertex="1">
          <mxGeometry x="391" y="345" width="20" height="20" as="geometry" />
        </mxCell>
        <mxCell id="g1Dt68nagMTFg1dU7cTH-246" value="" style="shape=waypoint;sketch=0;fillStyle=solid;size=6;pointerEvents=1;points=[];fillColor=#000066;resizable=0;rotatable=0;perimeter=centerPerimeter;snapToPoint=1;" parent="g1Dt68nagMTFg1dU7cTH-261" vertex="1">
          <mxGeometry x="402" y="335" width="20" height="20" as="geometry" />
        </mxCell>
        <mxCell id="g1Dt68nagMTFg1dU7cTH-247" value="" style="shape=waypoint;sketch=0;fillStyle=solid;size=6;pointerEvents=1;points=[];fillColor=#000066;resizable=0;rotatable=0;perimeter=centerPerimeter;snapToPoint=1;" parent="g1Dt68nagMTFg1dU7cTH-261" vertex="1">
          <mxGeometry x="425" y="312.19" width="20" height="20" as="geometry" />
        </mxCell>
        <mxCell id="g1Dt68nagMTFg1dU7cTH-248" value="" style="shape=waypoint;sketch=0;fillStyle=solid;size=6;pointerEvents=1;points=[];fillColor=#000066;resizable=0;rotatable=0;perimeter=centerPerimeter;snapToPoint=1;" parent="g1Dt68nagMTFg1dU7cTH-261" vertex="1">
          <mxGeometry x="415" y="322.19" width="20" height="20" as="geometry" />
        </mxCell>
        <mxCell id="g1Dt68nagMTFg1dU7cTH-249" value="" style="shape=waypoint;sketch=0;fillStyle=solid;size=6;pointerEvents=1;points=[];fillColor=#000066;resizable=0;rotatable=0;perimeter=centerPerimeter;snapToPoint=1;" parent="g1Dt68nagMTFg1dU7cTH-261" vertex="1">
          <mxGeometry x="445" y="292.19" width="20" height="20" as="geometry" />
        </mxCell>
        <mxCell id="g1Dt68nagMTFg1dU7cTH-250" value="" style="shape=waypoint;sketch=0;fillStyle=solid;size=6;pointerEvents=1;points=[];fillColor=#000066;resizable=0;rotatable=0;perimeter=centerPerimeter;snapToPoint=1;" parent="g1Dt68nagMTFg1dU7cTH-261" vertex="1">
          <mxGeometry x="435" y="302.19" width="20" height="20" as="geometry" />
        </mxCell>
        <mxCell id="g1Dt68nagMTFg1dU7cTH-251" value="" style="endArrow=none;html=1;rounded=0;exitX=0.425;exitY=1.025;exitDx=0;exitDy=0;exitPerimeter=0;" parent="g1Dt68nagMTFg1dU7cTH-261" source="g1Dt68nagMTFg1dU7cTH-245" target="g1Dt68nagMTFg1dU7cTH-246" edge="1">
          <mxGeometry width="50" height="50" relative="1" as="geometry">
            <mxPoint x="331" y="475" as="sourcePoint" />
            <mxPoint x="381" y="425" as="targetPoint" />
          </mxGeometry>
        </mxCell>
        <mxCell id="g1Dt68nagMTFg1dU7cTH-252" value="" style="endArrow=none;html=1;rounded=0;entryX=0.35;entryY=1.14;entryDx=0;entryDy=0;entryPerimeter=0;" parent="g1Dt68nagMTFg1dU7cTH-261" source="g1Dt68nagMTFg1dU7cTH-246" target="g1Dt68nagMTFg1dU7cTH-248" edge="1">
          <mxGeometry width="50" height="50" relative="1" as="geometry">
            <mxPoint x="331" y="475" as="sourcePoint" />
            <mxPoint x="381" y="425" as="targetPoint" />
          </mxGeometry>
        </mxCell>
        <mxCell id="g1Dt68nagMTFg1dU7cTH-253" value="" style="endArrow=none;html=1;rounded=0;entryX=1.125;entryY=0.39;entryDx=0;entryDy=0;entryPerimeter=0;exitX=0.45;exitY=0.165;exitDx=0;exitDy=0;exitPerimeter=0;" parent="g1Dt68nagMTFg1dU7cTH-261" source="g1Dt68nagMTFg1dU7cTH-247" target="g1Dt68nagMTFg1dU7cTH-248" edge="1">
          <mxGeometry width="50" height="50" relative="1" as="geometry">
            <mxPoint x="331" y="475" as="sourcePoint" />
            <mxPoint x="381" y="425" as="targetPoint" />
          </mxGeometry>
        </mxCell>
        <mxCell id="g1Dt68nagMTFg1dU7cTH-254" value="" style="endArrow=none;html=1;rounded=0;entryX=0.7;entryY=0.25;entryDx=0;entryDy=0;entryPerimeter=0;exitX=0.85;exitY=0.315;exitDx=0;exitDy=0;exitPerimeter=0;" parent="g1Dt68nagMTFg1dU7cTH-261" source="g1Dt68nagMTFg1dU7cTH-247" target="g1Dt68nagMTFg1dU7cTH-250" edge="1">
          <mxGeometry width="50" height="50" relative="1" as="geometry">
            <mxPoint x="331" y="475" as="sourcePoint" />
            <mxPoint x="381" y="425" as="targetPoint" />
          </mxGeometry>
        </mxCell>
        <mxCell id="g1Dt68nagMTFg1dU7cTH-255" value="" style="endArrow=none;html=1;rounded=0;entryX=0.675;entryY=0.725;entryDx=0;entryDy=0;entryPerimeter=0;fillColor=#000066;" parent="g1Dt68nagMTFg1dU7cTH-261" source="g1Dt68nagMTFg1dU7cTH-249" target="g1Dt68nagMTFg1dU7cTH-250" edge="1">
          <mxGeometry width="50" height="50" relative="1" as="geometry">
            <mxPoint x="331" y="475" as="sourcePoint" />
            <mxPoint x="381" y="425" as="targetPoint" />
          </mxGeometry>
        </mxCell>
        <mxCell id="g1Dt68nagMTFg1dU7cTH-257" value="pos" style="text;html=1;align=center;verticalAlign=middle;resizable=0;points=[];autosize=1;strokeColor=none;fillColor=none;" parent="g1Dt68nagMTFg1dU7cTH-261" vertex="1">
          <mxGeometry x="385" y="240" width="40" height="30" as="geometry" />
        </mxCell>
        <mxCell id="g1Dt68nagMTFg1dU7cTH-258" value="" style="endArrow=none;html=1;rounded=0;entryX=0.8;entryY=0.35;entryDx=0;entryDy=0;entryPerimeter=0;exitX=0.825;exitY=0.75;exitDx=0;exitDy=0;exitPerimeter=0;" parent="g1Dt68nagMTFg1dU7cTH-261" source="g1Dt68nagMTFg1dU7cTH-245" target="g1Dt68nagMTFg1dU7cTH-259" edge="1">
          <mxGeometry width="50" height="50" relative="1" as="geometry">
            <mxPoint x="331" y="475" as="sourcePoint" />
            <mxPoint x="491" y="285" as="targetPoint" />
          </mxGeometry>
        </mxCell>
        <mxCell id="g1Dt68nagMTFg1dU7cTH-259" value="" style="shape=waypoint;sketch=0;fillStyle=solid;size=6;pointerEvents=1;points=[];fillColor=#000066;resizable=0;rotatable=0;perimeter=centerPerimeter;snapToPoint=1;" parent="g1Dt68nagMTFg1dU7cTH-261" vertex="1">
          <mxGeometry x="381" y="355" width="20" height="20" as="geometry" />
        </mxCell>
        <mxCell id="g1Dt68nagMTFg1dU7cTH-260" value="" style="endArrow=none;html=1;rounded=0;strokeColor=#FF0000;fillColor=#000066;" parent="g1Dt68nagMTFg1dU7cTH-261" source="g1Dt68nagMTFg1dU7cTH-259" edge="1">
          <mxGeometry width="50" height="50" relative="1" as="geometry">
            <mxPoint x="331" y="475" as="sourcePoint" />
            <mxPoint x="482" y="273" as="targetPoint" />
          </mxGeometry>
        </mxCell>
      </root>
    </mxGraphModel>
  </diagram>
</mxfile>
